HIERARCHY
ROOT Hips
{
  OFFSET 0 89.5177 0.535
  CHANNELS 6 Xposition Yposition Zposition Zrotation Xrotation Yrotation
  JOINT Spine
  {
    OFFSET 12.0259 -0.162855 1.69034e-005
    CHANNELS 3 Zrotation Xrotation Yrotation
    JOINT Spine1
    {
      OFFSET 15.3169 -0.0121922 0
      CHANNELS 3 Zrotation Xrotation Yrotation
      JOINT Spine2
      {
        OFFSET 15.3176 -0.0121908 0
        CHANNELS 3 Zrotation Xrotation Yrotation
        JOINT Neck
        {
          OFFSET 19.9142 1.56338 0
          CHANNELS 3 Zrotation Xrotation Yrotation
          JOINT Head
          {
            OFFSET 6.92651 0 0
            CHANNELS 3 Zrotation Xrotation Yrotation
            End Site
            {
              OFFSET 20.7666 0 0
            }
          }
          JOINT LeftShoulder
          {
            OFFSET -6.20654 0.708824 7.28219
            CHANNELS 3 Zrotation Xrotation Yrotation
            JOINT LeftArm
            {
              OFFSET 14.108 0 -1.52588e-005
              CHANNELS 3 Zrotation Xrotation Yrotation
              JOINT LeftForeArm
              {
                OFFSET 28.5802 0 0
                CHANNELS 3 Zrotation Xrotation Yrotation
                JOINT LeftHand
                {
                  OFFSET 27.092 0 0
                  CHANNELS 3 Zrotation Xrotation Yrotation
                  End Site
                  {
                    OFFSET 9.55928 -0.186424 0.145352
                  }
                }
              }
            }
          }
          JOINT RightShoulder
          {
            OFFSET -6.20654 0.708866 -7.28218
            CHANNELS 3 Zrotation Xrotation Yrotation
            JOINT RightArm
            {
              OFFSET 14.108 0 1.52588e-005
              CHANNELS 3 Zrotation Xrotation Yrotation
              JOINT RightForeArm
              {
                OFFSET 28.5802 0 0
                CHANNELS 3 Zrotation Xrotation Yrotation
                JOINT RightHand
                {
                  OFFSET 27.092 0 0
                  CHANNELS 3 Zrotation Xrotation Yrotation
                  End Site
                  {
                    OFFSET 9.55929 -0.186417 -0.145354
                  }
                }
              }
            }
          }
        }
      }
    }
  }
  JOINT LeftUpLeg
  {
    OFFSET 0.005 -0.535 8.837
    CHANNELS 3 Zrotation Xrotation Yrotation
    JOINT LeftLeg
    {
      OFFSET 39.9035 0 0
      CHANNELS 3 Zrotation Xrotation Yrotation
      JOINT LeftFoot
      {
        OFFSET 39.6689 0 0
        CHANNELS 3 Zrotation Xrotation Yrotation
        JOINT LeftToe
        {
          OFFSET 10.1624 13.6296 0
          CHANNELS 3 Zrotation Xrotation Yrotation
          End Site
          {
            OFFSET 8.38147 0 0
          }
        }
      }
    }
  }
  JOINT RightUpLeg
  {
    OFFSET 0.005 -0.535 -8.837
    CHANNELS 3 Zrotation Xrotation Yrotation
    JOINT RightLeg
    {
      OFFSET 39.9035 0 0
      CHANNELS 3 Zrotation Xrotation Yrotation
      JOINT RightFoot
      {
        OFFSET 39.6689 0 0
        CHANNELS 3 Zrotation Xrotation Yrotation
        JOINT RightToe
        {
          OFFSET 10.1624 13.6296 0
          CHANNELS 3 Zrotation Xrotation Yrotation
          End Site
          {
            OFFSET 8.38147 0 0
          }
        }
      }
    }
  }
}
MOTION
Frames:	19
Frame Time:	0.0333333
297.221 80.9529 335.104 131.987 -65.8895 39.1955 4.49114 1.00904 1.91886 8.94836 2.16518 3.7539 8.94836 2.16518 3.75389 -8.29794e-012 -9.0191e-006 -5.27751e-005 -54.6181 -10.5539 -11.8246 -179.854 -0.418282 -70.7398 2.1583 37.2231 52.2241 -115.251 0 3.97569e-016 -73.2432 -15.1146 -57.0012 -179.733 1.01866 75.3358 -36.3333 -6.31287 -60.5349 -76.0694 3.18055e-015 3.18055e-015 -51.8256 64.8876 65.848 -21.2329 -11.2559 -161.915 -46.4166 7.95139e-016 1.59028e-015 23.8866 -17.5307 11.827 90 3.18055e-015 3.18055e-015 -45.6838 -9.50521 156.908 -40.3779 0 -3.47873e-016 11.9797 -8.03783 11.7041 90 -4.22417e-016 -7.95139e-016 
298.399 81.8354 333.272 130.21 -65.305 38.3533 4.62181 1.07149 1.81972 9.20999 2.2861 3.54832 9.20999 2.28609 3.54831 -8.31384e-012 -9.0191e-006 -5.27751e-005 -55.0983 -10.0615 -11.8092 -179.708 -0.817948 -70.3613 0.695375 33.7853 53.7852 -113.981 7.95139e-016 -0 -70.0002 -18.5052 -57.7858 -179.811 0.773212 76.2361 -36.8756 -6.92215 -58.3234 -78.2764 -3.18055e-015 -3.18055e-015 -51.7939 64.8147 65.2489 -28.1546 -12.1274 -163.955 -56.3407 -7.95139e-016 -1.59028e-015 14.723 -15.8149 5.29457 90 -9.54166e-015 3.18055e-015 -44.0256 -10.0176 157.104 -40.1673 4.96962e-016 -5.14355e-015 13.3396 -7.37574 10.6197 90 -1.49089e-016 7.95139e-016 
299.518 82.6154 331.295 127.332 -65.0122 36.5197 4.73446 1.41319 1.61632 9.43185 2.95495 3.11207 9.43185 2.95495 3.11206 -8.31384e-012 -9.0191e-006 -5.27751e-005 -54.3003 -10.7048 -12.6582 -179.541 -1.25707 -69.9307 -3.70526 31.2814 55.1207 -109.227 -5.5287e-016 -4.53478e-016 -66.7187 -22.0704 -58.1378 -179.996 0.0175676 77.3469 -39.1347 -8.02176 -57.5021 -79.0655 -3.18055e-015 -9.54166e-015 -52.0755 65.3959 65.2174 -32.7167 -10.8563 -164.645 -58.9434 -3.18055e-015 -4.77083e-015 11.3509 3.98692 -12.4529 90 0 -6.36111e-015 -41.7317 -10.6365 157.236 -39.9499 -6.4605e-016 -2.1183e-015 14.7914 -6.7928 9.85513 90 8.94531e-016 7.95139e-016 
300.739 83.1312 329.179 124.585 -64.3906 34.1368 4.80232 2.04981 1.44075 9.5612 4.21301 2.70745 9.5612 4.21301 2.70744 -8.29794e-012 -9.0191e-006 -5.27751e-005 -53.8002 -12.6286 -13.882 -179.517 -1.22078 -68.4094 -3.01441 30.1697 52.3144 -107.836 -3.97569e-016 1.19271e-015 -70.2855 -19.8132 -60.6319 179.685 -1.55509 78.5573 -40.7712 -7.49752 -58.8794 -77.0888 0 1.59028e-015 -55.7473 63.3727 69.3706 -38.2791 -6.58254 -166.113 -58.6196 3.18055e-015 4.77083e-015 10.49 12.9613 -13.6411 90 7.95139e-016 -1.59028e-015 -39.4948 -10.9884 158.202 -40.5712 -3.37934e-015 4.87022e-015 16.8399 -5.4508 8.4128 90 6.58474e-016 -4.77083e-015 
302.013 83.72 326.96 122.082 -62.6229 31.6913 4.79154 2.73913 1.26029 9.53848 5.57399 2.29096 9.53848 5.57399 2.29095 -8.29476e-012 -9.0191e-006 -5.27751e-005 -54.9305 -15.9955 -15.1726 -179.008 -2.4418 -67.8794 -1.47136 28.053 49.0203 -108.175 -3.18055e-015 -7.95139e-016 -68.9144 -22.9324 -61.925 179.488 -2.69473 79.2396 -42.8183 -5.2925 -59.9152 -73.6472 -6.36111e-015 6.95746e-016 -57.6852 62.915 71.7168 -44.2556 -1.73175 -167.094 -53.7553 0 3.18055e-015 7.78037 12.6914 -14.1932 90 1.59028e-015 -6.36111e-015 -37.5447 -12.5066 159.032 -40.5879 2.38542e-015 6.36111e-015 18.735 -4.08788 6.59548 90 -1.50331e-015 -1.59028e-015 
302.953 84.2171 324.696 119.696 -60.3297 29.3103 4.76732 3.38704 1.08376 9.49503 6.85258 1.88635 9.49503 6.85258 1.88634 -8.29794e-012 -9.0191e-006 -5.27751e-005 -56.4506 -19.3593 -16.9691 -178.524 -3.37144 -66.34 0.472953 27.3904 44.0036 -109.578 1.59028e-015 1.59028e-015 -71.9891 -21.2897 -65.58 179.451 -3.04437 79.7752 -47.0706 -2.82504 -59.9469 -72.3504 4.77083e-015 -1.59028e-015 -62.8644 61.8145 78.1881 -47.2161 3.51552 -169.339 -41.831 3.18055e-015 3.18055e-015 7.67904 9.61887 -10.8778 90 -1.98785e-016 -0 -35.8313 -15.7979 158.978 -39.699 3.97569e-016 3.97569e-016 20.2218 -4.19994 6.14345 90 -2.68359e-015 -0 
303.691 84.5288 322.235 119.176 -61.0679 28.3915 4.96704 4.33955 0.658104 9.92695 8.72019 0.939837 9.92695 8.72019 0.939828 -8.29794e-012 -9.0191e-006 -5.27751e-005 -57.7111 -22.2807 -17.535 -177.775 -4.69515 -64.6043 4.53323 24.4407 38.6366 -112.595 1.59028e-015 -0 -76.5122 -18.3121 -71.3978 179.317 -4.15551 80.653 -51.389 0.734483 -59.3683 -73.8726 -3.18055e-015 -0 -63.0084 60.2057 78.4637 -45.5304 10.6217 -170.271 -23.3416 0 -5.56597e-015 6.44023 8.38345 -9.53316 90 7.95139e-016 -1.27222e-014 -33.0676 -17.0058 160.676 -38.54 -3.97569e-016 -3.97569e-016 20.9549 -4.87918 6.82232 90 -6.58474e-016 1.59028e-015 
304.461 84.0869 319.949 126.227 -61.6486 29.7313 4.20255 5.36844 0.977474 8.36814 10.7942 1.56569 8.36814 10.7942 1.56568 -8.31066e-012 -9.0191e-006 -5.27751e-005 -57.1381 -24.2356 -17.3743 -176.895 -6.11501 -63.013 10.0693 17.7484 36.3107 -116.041 0 6.36111e-015 -78.4031 -16.932 -74.1835 179.261 -5.10565 81.748 -56.4033 4.69932 -57.264 -76.0961 1.59028e-015 -3.18055e-015 -63.3962 58.3887 77.4239 -47.4497 11.9703 -167.218 -6.67182 -3.18055e-015 3.18055e-015 9.05081 10.9881 -12.7682 90 -1.59028e-015 -3.18055e-015 -32.0947 -18.9561 167.212 -37.293 -1.19271e-015 3.97569e-016 21.2812 -5.55948 7.52111 90 2.36057e-016 -1.59028e-015 
304.297 83.9054 317.16 129.92 -66.2468 31.9327 4.17692 6.06106 0.664558 8.35359 12.1548 0.888117 8.35359 12.1548 0.888108 -8.29476e-012 -9.0191e-006 -5.27751e-005 -53.1969 -24.8762 -15.3669 -176.981 -5.77424 -62.3373 19.4131 6.99813 39.3686 -119.761 6.36111e-015 -4.77083e-015 -77.9773 -18.6429 -75.5428 179.229 -5.48064 81.9831 -60.9521 9.76024 -55.2947 -77.0796 -7.95139e-016 -3.18055e-015 -60.9064 57.2922 73.4195 -46.5833 14.8637 -164.443 -2.5746e-006 -6.36111e-015 -4.77083e-015 15.242 14.3819 -17.1556 90 0 -0 -28.1751 -16.4908 171.031 -36.236 -7.95139e-016 -1.98785e-016 21.6833 -6.69264 8.81089 90 -1.2424e-016 1.59028e-015 
304.013 83.562 314.655 135.04 -69.3008 34.7407 3.81672 5.88431 0.647096 7.62718 11.799 0.903888 7.62718 11.799 0.903879 -8.31066e-012 -9.0191e-006 -5.27751e-005 -46.3644 -22.0058 -11.6281 -177.914 -3.97613 -62.2824 29.0783 -7.43436 48.7987 -121.854 0 -0 -78.2695 -21.7947 -81.2493 179.285 -4.74775 81.4242 -64.4022 16.4007 -56.0493 -77.0506 2.38542e-015 -0 -64.7676 52.9645 76.5444 -47.8007 9.02725 -161.76 -7.4042 -3.18055e-015 3.18055e-015 18.7735 13.1437 -15.1127 90 1.59028e-015 6.36111e-015 -25.3215 -13.6902 174.913 -35.5596 -1.98785e-015 -2.5842e-015 22.4306 -6.92067 9.18098 90 -1.98785e-016 1.59028e-015 
303.36 83.4506 312.539 137.855 -70.8843 36.7036 3.42776 5.00104 0.624513 6.83992 10.0309 0.952025 6.83992 10.0308 0.952015 -8.31066e-012 -9.0191e-006 -5.27751e-005 -38.4091 -16.4903 -8.52125 -179.1 -1.65319 -61.4319 30.8479 -21.8491 59.2668 -119.922 0 -3.18055e-015 -79.9703 -21.7096 -84.7384 179.319 -4.19188 80.7687 -62.5143 23.6728 -61.6037 -77.0272 -3.18055e-015 -3.97569e-016 -66.7049 48.1475 76.8298 -48.0902 -4.02746 -162.064 -17.6875 -6.36111e-015 7.95139e-016 13.4603 5.74489 -12.239 90 -7.95139e-016 -0 -23.1222 -10.3955 176.649 -35.0489 -1.59028e-015 1.98785e-016 23.1661 -6.48275 8.92546 90 -9.93923e-017 -0 
302.825 83.4994 310.91 138.039 -71.0921 35.8997 2.92071 4.01136 0.819969 5.80503 8.05953 1.43887 5.80503 8.05953 1.43886 -8.31066e-012 -9.0191e-006 -5.27751e-005 -29.6916 -11.3963 -6.91161 179.37 1.2448 -63.15 17.2764 -30.9474 62.367 -105.462 1.59028e-015 6.36111e-015 -78.0635 -16.3062 -73.7969 179.2 -4.51988 79.9559 -58.3849 27.5678 -66.5893 -75.8829 4.77083e-015 -0 -69.2006 40.4974 75.8607 -47.4447 -6.31753 -161.239 -18.3284 0 5.56597e-015 9.0781 5.56757 -12.1775 90 -7.95139e-016 -3.18055e-015 -21.4186 -8.31543 178.066 -34.6579 0 3.97569e-016 23.3291 -5.5705 8.1864 90 -5.96354e-016 -3.18055e-015 
301.883 83.9329 309.517 131.403 -70.1058 30.0545 3.36458 3.32323 1.29384 6.67021 6.71653 2.39599 6.67021 6.71653 2.39599 -8.3043e-012 -9.0191e-006 -5.27751e-005 -24.382 -9.36878 -10.0125 177.949 4.5992 -65.9308 -5.98176 -43.7297 57.3476 -71.2285 1.59028e-015 -3.18055e-015 -75.3606 -13.1365 -61.4001 179.746 -1.94795 82.5568 -60.2363 31.1545 -62.509 -72.0221 -1.59028e-015 -0 -68.0779 38.0607 72.7937 -46.6475 -3.07536 -162.357 -18.3781 -3.18055e-015 -0 8.82099 5.91404 -10.2633 90 7.95139e-016 -1.59028e-015 -18.8917 -9.81287 176.62 -34.1297 0 1.98785e-015 22.4799 -5.70291 8.71406 90 -2.18663e-015 -3.18055e-015 
300.766 84.5033 308.472 128.028 -68.9678 26.5561 3.27094 1.9038 1.18892 6.5072 3.87248 2.26922 6.5072 3.87248 2.26921 -8.31066e-012 -9.0191e-006 -5.27751e-005 -16.4533 -5.42574 -7.42751 178.928 2.78373 -68.9374 -39.8119 -46.6898 28.4168 -45.8408 -1.59028e-015 -6.36111e-015 -33.7517 -43.389 -35.5023 179.244 -5.38073 81.9886 -60.5511 33.6697 -61.5416 -65.8377 0 -0 -66.219 36.0675 67.8678 -47.6373 0.309601 -163.036 -20.6012 -6.36111e-015 -7.95139e-016 13.3611 9.42025 -9.95796 90 -2.38542e-015 1.59028e-015 -17.5097 -11.7178 175.731 -33.5908 2.38542e-015 1.59028e-015 20.1608 -6.26927 9.89668 90 1.98785e-016 1.59028e-015 
299.604 85.0986 307.753 131.393 -69.3071 29.032 3.74322 1.56569 1.40692 7.45123 3.21995 2.71026 7.45123 3.21995 2.71026 -8.30748e-012 -9.0191e-006 -5.27751e-005 -14.2369 -3.15925 -7.18579 179.873 0.505731 -75.9113 -64.7576 -30.2793 10.0288 -40.0464 -4.27387e-015 6.75868e-015 21.2149 -39.1419 7.5409 179.682 -3.65989 85.0335 -65.6397 38.2441 -56.6775 -62.8555 -3.97569e-016 3.18055e-015 -65.4826 35.011 65.4156 -50.0168 4.3332 -161.704 -23.0849 -9.54166e-015 -7.95139e-016 18.8303 14.5463 -11.838 90 0 3.18055e-015 -18.2687 -11.3606 175.703 -33.5928 1.59028e-015 -3.97569e-016 16.7394 -7.07173 11.3947 90 -3.97569e-016 1.59028e-015 
298.472 85.8276 307.04 138.198 -70.8628 34.8823 3.04869 1.47316 1.80152 6.05271 3.03985 3.52407 6.05271 3.03985 3.52406 -8.30112e-012 -9.0191e-006 -5.27751e-005 -8.84021 -0.789522 -8.94382 -179.048 -3.66966 -75.4388 -67.3756 -32.2543 12.9337 -44.8998 -4.96962e-016 3.18055e-015 25.0346 -36.5627 5.94066 179.332 -4.6242 81.7748 -62.8383 33.4946 -58.7644 -63.9781 3.97569e-016 3.18055e-015 -65.267 31.4851 60.8297 -49.5796 4.19856 -160.358 -22.7753 -1.90833e-014 3.18055e-015 17.7871 12.668 -10.3813 90 1.59028e-015 1.59028e-015 -18.7356 -9.89788 176.136 -32.1066 0 3.97569e-016 12.7771 -8.4456 12.6347 90 3.97569e-016 -1.59028e-015 
297.188 86.5205 306.419 146.305 -72.3937 43.0755 2.9018 1.77014 1.76069 5.7521 3.62686 3.43212 5.7521 3.62686 3.43211 -8.3043e-012 -9.0191e-006 -5.27751e-005 -4.92728 0.51792 -10.4166 -178.93 -3.8012 -74.2705 -59.5374 -42.4855 19.0744 -54.5121 -2.98177e-016 -7.95139e-016 -8.56732 -36.0111 -14.9052 179.291 -4.17629 80.3502 -61.8974 32.2774 -58.2865 -66.9192 3.97569e-016 -0 -62.5143 30.8924 55.3721 -46.8818 2.08332 -160.396 -20.5842 0 -7.95139e-016 14.0632 7.98651 -8.30671 90 0 1.59028e-015 -18.7965 -8.19437 175.731 -29.8153 7.95139e-016 6.16233e-015 9.68887 -9.72438 13.0701 90 3.97569e-016 3.18055e-015 
295.785 86.9298 305.704 150.791 -73.4911 48.5971 2.7963 1.9096 1.50335 5.54626 3.89017 2.91429 5.54626 3.89017 2.91428 -8.30748e-012 -9.0191e-006 -5.27751e-005 0.994273 0.73836 -11.5492 -179.647 -1.22595 -73.9293 -46.3992 -47.7479 27.577 -64.7451 -4.27387e-015 -1.59028e-015 -26.9129 -37.099 -30.3146 179.298 -3.74275 79.3685 -63.0085 31.1428 -56.0914 -68.2859 4.67144e-015 3.18055e-015 -62.2286 31.8595 55.6952 -43.8165 0.722827 -161.518 -18.4753 -6.36111e-015 2.78299e-015 10.2658 4.31282 -6.97282 90 -7.95139e-016 1.59028e-015 -18.2492 -7.69501 174.176 -28.3155 -1.19271e-015 3.57812e-015 7.65578 -9.88424 13.8354 90 0 -0 
294.51 87.1541 304.902 154.159 -74.5207 52.9484 2.80416 1.81946 1.36818 5.56838 3.70369 2.64782 5.56838 3.70369 2.64781 -8.3043e-012 -9.0191e-006 -5.27751e-005 6.4192 1.69975 -13.3777 -179.772 -0.848857 -74.9778 -32.1433 -50.7481 38.3224 -73.0736 2.78299e-015 3.18055e-015 -33.1 -35.1073 -35.3375 179.398 -3.52942 80.3071 -63.4735 31.4223 -55.1147 -68.6972 -1.19271e-015 9.54166e-015 -61.2903 34.1059 56.1697 -42.2273 1.41734 -162.33 -18.0026 6.36111e-015 -2.78299e-015 8.40355 3.13145 -6.18716 90 -7.95139e-016 3.18055e-015 -18.0087 -7.36493 172.901 -28.5155 1.78906e-015 -1.88845e-015 6.30419 -7.86321 14.1168 90 0 1.59028e-015 
